name p12_grf_mean_speed_1.8
datacolumns 13
datarows 63
range 0.0000000000 0.6200000000
endheader
time	grf_x_l_mean	grf_x_l_var	grf_y_l_mean	grf_y_l_var	grf_z_l_mean	grf_z_l_var	grf_x_r_mean	grf_x_r_var	grf_y_r_mean	grf_y_r_var	grf_z_r_mean	grf_z_r_var
0.0000000000	136.1913003499	1.0000000000	620.7856907266	1.0000000000	0.0000000000	0.0000000000	4.6878290834	1.0000000000	11.3719504108	1.0000000000	0.0000000000	0.0000000000
0.0100000000	146.0135809340	1.0000000000	596.6100989889	1.0000000000	0.0000000000	0.0000000000	4.4899107353	1.0000000000	45.8173728835	1.0000000000	0.0000000000	0.0000000000
0.0200000000	152.1347882226	1.0000000000	558.4706575038	1.0000000000	0.0000000000	0.0000000000	2.1388573083	1.0000000000	100.7622558495	1.0000000000	0.0000000000	0.0000000000
0.0300000000	153.0418150891	1.0000000000	507.6271174635	1.0000000000	0.0000000000	0.0000000000	-4.2501792923	1.0000000000	175.5635554982	1.0000000000	0.0000000000	0.0000000000
0.0400000000	147.9249565494	1.0000000000	446.4461967516	1.0000000000	0.0000000000	0.0000000000	-17.5493815991	1.0000000000	262.4154720235	1.0000000000	0.0000000000	0.0000000000
0.0500000000	136.0820843755	1.0000000000	377.8541726417	1.0000000000	0.0000000000	0.0000000000	-38.7526457271	1.0000000000	347.9349385865	1.0000000000	0.0000000000	0.0000000000
0.0600000000	117.6985774439	1.0000000000	305.3563439573	1.0000000000	0.0000000000	0.0000000000	-62.9279595317	1.0000000000	420.4582455171	1.0000000000	0.0000000000	0.0000000000
0.0700000000	95.7442182182	1.0000000000	233.9135812310	1.0000000000	0.0000000000	0.0000000000	-84.0823990969	1.0000000000	474.9045613667	1.0000000000	0.0000000000	0.0000000000
0.0800000000	73.3220222129	1.0000000000	168.7498461897	1.0000000000	0.0000000000	0.0000000000	-101.8851581575	1.0000000000	513.6229161397	1.0000000000	0.0000000000	0.0000000000
0.0900000000	51.1950340651	1.0000000000	113.5507369609	1.0000000000	0.0000000000	0.0000000000	-117.1456807088	1.0000000000	543.5343569316	1.0000000000	0.0000000000	0.0000000000
0.1000000000	32.1215366427	1.0000000000	69.8544957836	1.0000000000	0.0000000000	0.0000000000	-129.0509739296	1.0000000000	570.5499546313	1.0000000000	0.0000000000	0.0000000000
0.1100000000	18.3368047857	1.0000000000	37.7154899244	1.0000000000	0.0000000000	0.0000000000	-135.6689121252	1.0000000000	596.0734597008	1.0000000000	0.0000000000	0.0000000000
0.1200000000	8.8695678626	1.0000000000	16.3598904933	1.0000000000	0.0000000000	0.0000000000	-136.3938236906	1.0000000000	618.5774465684	1.0000000000	0.0000000000	0.0000000000
0.1300000000	2.8547730802	1.0000000000	3.7892152995	1.0000000000	0.0000000000	0.0000000000	-132.9012685647	1.0000000000	635.8434793324	1.0000000000	0.0000000000	0.0000000000
0.1400000000	0.0000000000	1.0000000000	0.0000000000	1.0000000000	0.0000000000	0.0000000000	-125.1872858694	1.0000000000	645.9421791843	1.0000000000	0.0000000000	0.0000000000
0.1500000000	0.0000000000	1.0000000000	0.0000000000	1.0000000000	0.0000000000	0.0000000000	-113.6100117279	1.0000000000	647.7724814903	1.0000000000	0.0000000000	0.0000000000
0.1600000000	0.0000000000	1.0000000000	0.0000000000	1.0000000000	0.0000000000	0.0000000000	-100.3911010938	1.0000000000	640.6999155943	1.0000000000	0.0000000000	0.0000000000
0.1700000000	0.0000000000	1.0000000000	0.0000000000	1.0000000000	0.0000000000	0.0000000000	-87.2307032024	1.0000000000	624.3822802521	1.0000000000	0.0000000000	0.0000000000
0.1800000000	0.0000000000	1.0000000000	0.0000000000	1.0000000000	0.0000000000	0.0000000000	-74.0442440200	1.0000000000	599.2518874645	1.0000000000	0.0000000000	0.0000000000
0.1900000000	0.0000000000	1.0000000000	0.0000000000	1.0000000000	0.0000000000	0.0000000000	-60.9826731127	1.0000000000	566.8382932347	1.0000000000	0.0000000000	0.0000000000
0.2000000000	0.0000000000	1.0000000000	0.0000000000	1.0000000000	0.0000000000	0.0000000000	-49.8331369606	1.0000000000	529.6046375973	1.0000000000	0.0000000000	0.0000000000
0.2100000000	1.0207089154	1.0000000000	0.4140542465	1.0000000000	0.0000000000	0.0000000000	-40.6775157794	1.0000000000	489.8418059796	1.0000000000	0.0000000000	0.0000000000
0.2200000000	1.6059746485	1.0000000000	0.5969985597	1.0000000000	0.0000000000	0.0000000000	-32.5724180050	1.0000000000	449.4152404835	1.0000000000	0.0000000000	0.0000000000
0.2300000000	1.8332281072	1.0000000000	0.4070338727	1.0000000000	0.0000000000	0.0000000000	-25.6192566568	1.0000000000	410.0995284020	1.0000000000	0.0000000000	0.0000000000
0.2400000000	0.0000000000	1.0000000000	0.0000000000	1.0000000000	0.0000000000	0.0000000000	-20.1165946546	1.0000000000	373.1976487328	1.0000000000	0.0000000000	0.0000000000
0.2500000000	0.0000000000	1.0000000000	0.0000000000	1.0000000000	0.0000000000	0.0000000000	-15.9015416201	1.0000000000	339.7163846055	1.0000000000	0.0000000000	0.0000000000
0.2600000000	0.0000000000	1.0000000000	0.0000000000	1.0000000000	0.0000000000	0.0000000000	-12.0650547202	1.0000000000	310.7360678703	1.0000000000	0.0000000000	0.0000000000
0.2700000000	0.0000000000	1.0000000000	0.0000000000	1.0000000000	0.0000000000	0.0000000000	-8.8869702679	1.0000000000	287.0686599388	1.0000000000	0.0000000000	0.0000000000
0.2800000000	0.0000000000	1.0000000000	0.0000000000	1.0000000000	0.0000000000	0.0000000000	-6.7751534365	1.0000000000	268.8343054188	1.0000000000	0.0000000000	0.0000000000
0.2900000000	0.0000000000	1.0000000000	0.0000000000	1.0000000000	0.0000000000	0.0000000000	-4.7978656006	1.0000000000	255.6047030793	1.0000000000	0.0000000000	0.0000000000
0.3000000000	0.0000000000	1.0000000000	0.0000000000	1.0000000000	0.0000000000	0.0000000000	-2.7959107049	1.0000000000	247.2012822448	1.0000000000	0.0000000000	0.0000000000
0.3100000000	0.0000000000	1.0000000000	0.0000000000	1.0000000000	0.0000000000	0.0000000000	-0.9643018894	1.0000000000	243.9670930155	1.0000000000	0.0000000000	0.0000000000
0.3200000000	0.0000000000	1.0000000000	0.0000000000	1.0000000000	0.0000000000	0.0000000000	1.0596517804	1.0000000000	246.0802075911	1.0000000000	0.0000000000	0.0000000000
0.3300000000	0.0000000000	1.0000000000	0.0000000000	1.0000000000	0.0000000000	0.0000000000	3.8460864672	1.0000000000	253.2493825154	1.0000000000	0.0000000000	0.0000000000
0.3400000000	0.0000000000	1.0000000000	0.0000000000	1.0000000000	0.0000000000	0.0000000000	7.5452310269	1.0000000000	265.0612477299	1.0000000000	0.0000000000	0.0000000000
0.3500000000	0.0000000000	1.0000000000	0.0000000000	1.0000000000	0.0000000000	0.0000000000	11.7605672604	1.0000000000	281.2037978828	1.0000000000	0.0000000000	0.0000000000
0.3600000000	0.0000000000	1.0000000000	0.0000000000	1.0000000000	0.0000000000	0.0000000000	16.5605361279	1.0000000000	301.6290260383	1.0000000000	0.0000000000	0.0000000000
0.3700000000	0.0000000000	1.0000000000	0.0000000000	1.0000000000	0.0000000000	0.0000000000	21.9479428963	1.0000000000	326.4106366745	1.0000000000	0.0000000000	0.0000000000
0.3800000000	1.6637590512	1.0000000000	0.2161137185	1.0000000000	0.0000000000	0.0000000000	27.5423144077	1.0000000000	355.2979066937	1.0000000000	0.0000000000	0.0000000000
0.3900000000	0.9411414849	1.0000000000	0.4420757484	1.0000000000	0.0000000000	0.0000000000	33.3606209956	1.0000000000	387.6731189603	1.0000000000	0.0000000000	0.0000000000
0.4000000000	0.5435732847	1.0000000000	0.2750441847	1.0000000000	0.0000000000	0.0000000000	39.8112635352	1.0000000000	422.9323593546	1.0000000000	0.0000000000	0.0000000000
0.4100000000	0.0000000000	1.0000000000	0.0000000000	1.0000000000	0.0000000000	0.0000000000	47.0820094189	1.0000000000	460.6055303715	1.0000000000	0.0000000000	0.0000000000
0.4200000000	0.0000000000	1.0000000000	0.0000000000	1.0000000000	0.0000000000	0.0000000000	55.1141215492	1.0000000000	499.8385389602	1.0000000000	0.0000000000	0.0000000000
0.4300000000	0.0000000000	1.0000000000	0.0000000000	1.0000000000	0.0000000000	0.0000000000	64.3910202855	1.0000000000	538.8821464584	1.0000000000	0.0000000000	0.0000000000
0.4400000000	0.0000000000	1.0000000000	0.0000000000	1.0000000000	0.0000000000	0.0000000000	75.2814493226	1.0000000000	575.5014187516	1.0000000000	0.0000000000	0.0000000000
0.4500000000	0.0000000000	1.0000000000	0.0000000000	1.0000000000	0.0000000000	0.0000000000	87.5032443435	1.0000000000	607.5292298609	1.0000000000	0.0000000000	0.0000000000
0.4600000000	0.0000000000	1.0000000000	0.0000000000	1.0000000000	0.0000000000	0.0000000000	100.9038086564	1.0000000000	632.7541492714	1.0000000000	0.0000000000	0.0000000000
0.4700000000	0.0000000000	1.0000000000	0.0000000000	1.0000000000	0.0000000000	0.0000000000	115.2498095545	1.0000000000	648.8201051547	1.0000000000	0.0000000000	0.0000000000
0.4800000000	0.0000000000	1.0000000000	0.0000000000	1.0000000000	0.0000000000	0.0000000000	129.6932424837	1.0000000000	653.4943071436	1.0000000000	0.0000000000	0.0000000000
0.4900000000	5.3972711298	1.0000000000	10.0981182559	1.0000000000	0.0000000000	0.0000000000	142.8853513947	1.0000000000	644.9959263398	1.0000000000	0.0000000000	0.0000000000
0.5000000000	5.9152952564	1.0000000000	41.7659201102	1.0000000000	0.0000000000	0.0000000000	153.5641791146	1.0000000000	622.1776347489	1.0000000000	0.0000000000	0.0000000000
0.5100000000	4.4643708329	1.0000000000	92.4865342078	1.0000000000	0.0000000000	0.0000000000	160.5649476224	1.0000000000	584.8124137373	1.0000000000	0.0000000000	0.0000000000
0.5200000000	-1.1681144908	1.0000000000	162.0444161951	1.0000000000	0.0000000000	0.0000000000	162.3297636385	1.0000000000	534.0386919256	1.0000000000	0.0000000000	0.0000000000
0.5300000000	-14.1649235388	1.0000000000	243.9214485810	1.0000000000	0.0000000000	0.0000000000	157.6443601986	1.0000000000	472.3350059341	1.0000000000	0.0000000000	0.0000000000
0.5400000000	-35.3661198105	1.0000000000	326.3411701802	1.0000000000	0.0000000000	0.0000000000	146.2670777280	1.0000000000	402.8390209932	1.0000000000	0.0000000000	0.0000000000
0.5500000000	-60.2790324092	1.0000000000	397.7517383242	1.0000000000	0.0000000000	0.0000000000	129.0546986457	1.0000000000	329.0910968698	1.0000000000	0.0000000000	0.0000000000
0.5600000000	-82.6538139534	1.0000000000	451.3380829672	1.0000000000	0.0000000000	0.0000000000	108.2990492424	1.0000000000	255.6858557124	1.0000000000	0.0000000000	0.0000000000
0.5700000000	-100.0186858057	1.0000000000	486.8841164097	1.0000000000	0.0000000000	0.0000000000	86.2248388904	1.0000000000	187.7887214710	1.0000000000	0.0000000000	0.0000000000
0.5800000000	-112.9978084871	1.0000000000	510.0432521687	1.0000000000	0.0000000000	0.0000000000	64.1024629656	1.0000000000	129.4102241872	1.0000000000	0.0000000000	0.0000000000
0.5900000000	-121.9460994753	1.0000000000	528.1581842996	1.0000000000	0.0000000000	0.0000000000	43.9626959317	1.0000000000	82.3367300988	1.0000000000	0.0000000000	0.0000000000
0.6000000000	-126.5268409792	1.0000000000	545.9324180757	1.0000000000	0.0000000000	0.0000000000	27.6850492122	1.0000000000	46.7023024307	1.0000000000	0.0000000000	0.0000000000
0.6100000000	-127.3037179241	1.0000000000	564.2188370398	1.0000000000	0.0000000000	0.0000000000	15.4213312268	1.0000000000	22.0073451659	1.0000000000	0.0000000000	0.0000000000
0.6200000000	-125.2906560323	1.0000000000	581.2297405462	1.0000000000	0.0000000000	0.0000000000	6.9234022164	1.0000000000	6.8021827805	1.0000000000	0.0000000000	0.0000000000
